<?xml version="1.0" standalone="no"?>
<!DOCTYPE svg PUBLIC "-//W3C//DTD SVG 20010904//EN"
 "http://www.w3.org/TR/2001/REC-SVG-20010904/DTD/svg10.dtd">
<svg version="1.0" xmlns="http://www.w3.org/2000/svg"
 width="300.000000pt" height="300.000000pt" viewBox="0 0 300.000000 300.000000"
 preserveAspectRatio="xMidYMid meet">
<metadata>
Created by potrace 1.14, written by Peter Selinger 2001-2017
</metadata>
<g transform="translate(0.000000,300.000000) scale(0.100000,-0.100000)"
fill="#000000" stroke="none">
<path d="M0 1500 l0 -1500 1500 0 1500 0 0 1500 0 1500 -1500 0 -1500 0 0
-1500z m1631 935 c25 -13 50 -35 57 -50 19 -42 14 -42 -20 -1 -34 42 -97 75
-141 76 -16 0 -26 4 -23 9 8 12 67 -4 127 -34z m-154 29 c-3 -3 -12 -4 -19 -1
-8 3 -5 6 6 6 11 1 17 -2 13 -5z m-112 -32 c-6 -4 -27 -23 -47 -41 -21 -19
-38 -30 -38 -23 0 11 75 72 89 72 3 0 1 -3 -4 -8z m-114 -205 c-11 -18 -30
-49 -41 -70 -11 -21 -25 -35 -30 -32 -16 10 -79 -95 -91 -155 -6 -30 -7 -26
-8 25 -1 70 10 96 99 245 87 146 84 144 88 76 2 -44 -2 -65 -17 -89z m513 74
c16 -20 44 -67 62 -106 35 -74 56 -164 36 -151 -7 4 -12 13 -12 21 0 46 -25
117 -51 146 -16 18 -29 36 -29 40 0 5 -11 18 -24 31 -13 13 -26 39 -29 58 -3
29 -2 32 7 16 6 -10 24 -35 40 -55z m-604 -265 c0 -2 -8 -10 -17 -17 -16 -13
-17 -12 -4 4 13 16 21 21 21 13z m-1 -43 c-5 -14 -24 -43 -42 -63 -18 -20 -38
-45 -45 -56 -6 -10 0 6 15 36 22 46 69 110 80 110 1 0 -2 -12 -8 -27z m111 4
c0 -2 -10 -12 -22 -23 l-23 -19 19 23 c18 21 26 27 26 19z m470 -27 c6 -11 8
-20 6 -20 -3 0 -10 9 -16 20 -6 11 -8 20 -6 20 3 0 10 -9 16 -20z m-520 -14
c0 -2 -8 -10 -17 -17 -16 -13 -17 -12 -4 4 13 16 21 21 21 13z m204 -69 c23
-14 40 -32 42 -45 5 -27 3 -27 -46 -2 -22 11 -47 20 -57 20 -25 0 -75 -35 -66
-45 5 -5 0 -3 -9 4 -27 21 -22 58 10 75 38 21 81 19 126 -7z m254 -10 c2 -10
1 -25 -2 -33 -5 -14 -8 -13 -28 0 -31 22 -52 20 -98 -9 -69 -43 -84 -22 -25
35 19 19 35 31 35 26 0 -4 7 -3 15 2 26 14 99 0 103 -21z m197 3 c-3 -5 -1
-10 4 -10 6 0 11 -5 11 -11 0 -8 -5 -8 -15 1 -13 11 -12 30 1 30 3 0 2 -4 -1
-10z m-509 -95 c-2 -7 5 -16 17 -19 18 -5 20 -8 7 -16 -24 -16 -77 -12 -84 6
-14 35 -4 46 32 35 7 -3 17 5 14 12 -1 5 2 5 8 2 6 -4 9 -13 6 -20z m290 -20
c-7 -26 -37 -34 -64 -16 -10 6 -3 14 25 28 21 11 40 19 42 17 2 -2 1 -15 -3
-29z m-146 0 c1 -16 -32 -18 -41 -3 -5 7 -9 16 -9 20 0 10 50 -6 50 -17z m-50
-12 c0 -3 -5 -3 -12 -1 -6 2 -26 -12 -44 -31 -19 -21 -32 -29 -31 -20 5 34 87
83 87 52z m68 -9 c-4 -3 3 -15 14 -26 12 -12 18 -28 15 -39 -3 -12 -1 -17 5
-12 6 3 18 -3 26 -13 14 -19 15 -18 8 1 -4 11 -9 34 -12 50 -3 20 0 16 10 -14
8 -24 12 -49 9 -57 -3 -8 2 -17 10 -20 12 -4 14 -11 7 -30 -5 -13 -7 -31 -4
-39 4 -9 -3 -19 -20 -27 -17 -7 -23 -14 -15 -19 21 -12 -47 -39 -96 -37 -25 0
-45 5 -45 10 0 4 -9 8 -19 8 -32 0 -35 20 -4 21 27 1 26 1 -6 9 -34 8 -51 24
-51 48 0 6 -5 12 -11 12 -8 0 -8 5 1 15 8 9 8 15 2 15 -12 0 13 56 29 66 5 3
17 0 26 -8 15 -12 15 -11 5 9 -15 28 -15 28 4 47 17 18 64 22 64 6 0 -5 9 -1
20 10 11 11 23 20 27 20 3 0 4 -3 1 -6z m426 -20 c54 -30 55 -32 47 -63 -6
-23 -7 -23 -54 22 -26 26 -47 51 -47 57 0 14 1 13 54 -16z m-871 -21 c5 -26 3
-33 -10 -33 -8 0 -31 -16 -49 -36 -36 -37 -45 -35 -18 4 9 13 14 26 11 28 -13
13 -57 -73 -57 -111 0 -29 -3 -36 -10 -25 -19 30 -11 84 18 115 28 31 105 96
108 92 0 -1 4 -17 7 -34z m67 -61 c0 -3 -6 1 -14 7 -11 9 -15 9 -19 -1 -3 -7
-6 -3 -6 9 -1 12 -4 30 -7 40 -4 10 5 3 20 -16 14 -19 26 -37 26 -39z m931
-34 c10 -21 19 -46 19 -57 0 -11 10 -41 22 -65 18 -38 20 -49 10 -68 -12 -22
-12 -22 -7 5 5 26 -19 87 -37 95 -4 2 -10 19 -14 38 -3 19 -9 33 -12 30 -10
-10 -42 43 -42 70 0 27 0 27 21 8 12 -10 30 -36 40 -56z m-1158 -116 c6 -29 5
-31 -8 -18 -16 15 -20 38 -8 49 8 9 9 8 16 -31z m5 -86 c4 -20 -43 -96 -59
-96 -12 0 -6 26 18 83 17 38 35 44 41 13z m1231 -88 c11 -29 24 -69 27 -88 l7
-35 -27 24 c-21 20 -25 31 -20 57 5 25 1 35 -15 46 -14 10 -19 21 -15 32 10
27 21 18 43 -36z m-1289 -55 c-42 -66 -38 -89 11 -63 32 18 21 1 -13 -20 -43
-26 -48 -25 -48 9 0 17 14 46 35 75 46 59 53 59 15 -1z m1328 -137 c-3 -35 -4
-36 -16 -15 -8 11 -9 18 -3 14 7 -3 11 2 11 15 0 14 -10 25 -31 34 -20 9 -27
15 -18 18 9 4 5 10 -14 18 -20 10 -24 16 -15 21 9 6 26 -5 51 -30 33 -32 38
-43 35 -75z m-1343 14 c-3 -5 -10 -10 -16 -10 -5 0 -9 5 -9 10 0 6 7 10 16 10
8 0 12 -4 9 -10z m1274 -16 c14 -12 -19 -1 -35 12 -18 14 -18 14 6 3 14 -6 27
-13 29 -15z m-1303 -36 c-9 -12 -16 -34 -17 -48 l0 -25 -11 23 c-9 19 -7 26
12 47 29 31 36 32 16 3z m1329 -28 l20 -25 -22 19 c-13 11 -23 24 -23 29 0 6
1 8 3 6 1 -2 11 -15 22 -29z m6 -72 c16 -29 2 -21 -22 15 -17 23 -18 28 -6 18
10 -8 23 -23 28 -33z m-1340 9 c-10 -9 -11 -8 -5 6 3 10 9 15 12 12 3 -3 0
-11 -7 -18z m1191 -19 c4 -7 6 -20 4 -28 -3 -8 -10 -62 -17 -120 -8 -58 -15
-93 -17 -79 -3 23 -9 27 -49 33 -25 3 -127 6 -225 6 -156 0 -179 2 -174 15 3
8 1 15 -4 15 -6 0 -10 7 -10 15 0 18 -16 20 -27 3 -4 -7 -15 -13 -23 -13 -8 0
-19 -9 -24 -21 -9 -19 -23 -22 -180 -33 -204 -15 -266 -24 -276 -40 -8 -14
-16 26 -25 129 -3 36 -8 74 -10 85 -5 23 4 40 22 46 7 2 241 3 520 2 394 -2
509 -6 515 -15z m191 -44 c-11 -32 -18 -43 -21 -30 -3 16 28 90 35 82 2 -1 -5
-25 -14 -52z m-36 -66 c-3 -8 -6 -5 -6 6 -1 11 2 17 5 13 3 -3 4 -12 1 -19z
m-1224 -55 c-27 -18 -30 -31 -7 -29 27 2 26 -18 -1 -31 -23 -10 -25 -9 -25 12
0 13 -4 27 -10 30 -5 3 -10 -1 -10 -10 0 -11 -5 -15 -15 -11 -11 4 -15 0 -13
-11 2 -9 -5 -17 -15 -19 -15 -2 -16 0 -6 14 28 37 75 71 99 71 l25 0 -22 -16z
m1169 -34 c32 -35 33 -36 13 -36 -8 0 -17 7 -19 14 -4 8 -11 11 -18 7 -7 -4
-10 -4 -6 0 9 11 -14 35 -28 29 -6 -2 -9 -15 -6 -28 4 -23 3 -23 -22 -12 -31
14 -33 27 -6 34 17 5 18 8 8 21 -26 31 55 3 84 -29z m60 -24 c-2 -14 -8 -25
-13 -25 -12 0 -11 7 1 31 14 26 18 24 12 -6z"/>
<path d="M1436 1692 c-3 -5 6 -20 19 -32 19 -18 25 -20 25 -8 0 19 -36 52 -44
40z"/>
<path d="M1500 1675 c-22 -27 -5 -37 19 -11 19 20 21 26 9 26 -9 0 -21 -7 -28
-15z"/>
<path d="M1384 1536 c34 -28 252 -18 224 9 -3 4 -15 2 -26 -4 -26 -14 -167
-14 -195 0 -21 10 -21 10 -3 -5z"/>
<path d="M1305 841 c-11 -3 -36 -15 -55 -26 -25 -14 -30 -20 -18 -23 14 -3 98
43 98 54 0 2 -1 4 -2 3 -2 -1 -12 -4 -23 -8z"/>
<path d="M1142 811 c-23 -4 -50 -16 -60 -26 -16 -17 -16 -17 8 -11 14 3 36 6
50 6 14 0 36 9 50 20 27 21 23 22 -48 11z"/>
<path d="M2018 773 c7 -3 16 -2 19 1 4 3 -2 6 -13 5 -11 0 -14 -3 -6 -6z"/>
</g>
</svg>
